<svg xmlns="http://www.w3.org/2000/svg" xmlns:xlink="http://www.w3.org/1999/xlink" viewBox="0 0 166 144"><defs><style>.cls-1{fill:none;}.cls-2{clip-path:url(#clip-path);}.cls-3{fill:#e8aa72;}.cls-4{fill:#eaa271;}.cls-5{fill:#401900;}.cls-6{fill:#e2935d;}.cls-7{fill:#323232;}.cls-8{fill:#f69dff;}.cls-9{fill:#22b573;}.cls-10{fill:#e6e6e6;}</style><clipPath id="clip-path"><rect class="cls-1" x="-21" y="6" width="201" height="137.5"/></clipPath></defs><g id="Capa_5" data-name="Capa 5"><g class="cls-2"><path class="cls-3" d="M136.67,97.2v.24c-1.79,26.67-7.08,65-31,81.85-7.47,5.26-16.77,8.43-28.34,8.49a38,38,0,0,1-23.94-8.13c-21.53-16.51-29.85-54.3-30.93-76.52V103C20.37,60,41.1,34.34,80,34.34,119.6,34.34,139,62.22,136.67,97.2Z"/><path class="cls-4" d="M121.53,147.27c7.82.12,27.82-7,28-20.75S138.09,107.75,127.22,115,121.53,147.27,121.53,147.27Z"/><path class="cls-5" d="M49.1,42C45,31.54,16.93,17.18,8.12,47.58-.13,76,25.14,125.78,25,125.68c-4.52-2.75,2-20.38,4.91-37.51,4.6-27.37,16.92-21.25,19.47-29.65C50.31,55.36,51,46.81,49.1,42Z"/><ellipse cx="105.88" cy="116.64" rx="3.51" ry="5.97"/><path class="cls-6" d="M80.07,144.27a1.27,1.27,0,0,1-.47-.09c-.69-.26-6.72-2.67-6.72-6.56,0-1.64,1-4.43,2.07-7.66,1.18-3.4,2.5-7.26,2.5-9.38a1.33,1.33,0,1,1,2.66,0c0,2.57-1.34,6.47-2.64,10.25-1,2.75-1.93,5.59-1.93,6.79,0,1.47,3,3.31,5,4.08a1.33,1.33,0,0,1-.48,2.57Z"/><ellipse cx="53.18" cy="116.64" rx="3.51" ry="5.97"/><path class="cls-5" d="M60.91,99a43.76,43.76,0,0,0-16.44.9,6,6,0,0,0-4.22,3.2c-.51,1.23-.29,3.53.17,3.47,9.7-1.26,12.91-1.51,20.26-1.32C63.76,105.3,63.94,99.39,60.91,99Z"/><path class="cls-5" d="M98,99a43.78,43.78,0,0,1,16.44.9,6,6,0,0,1,4.22,3.2c.51,1.23.29,3.53-.17,3.47-9.7-1.26-12.91-1.51-20.26-1.32C95.14,105.3,95,99.39,98,99Z"/><path class="cls-5" d="M95.1,59.55c19.15.79,28.2,14.61,28.73,27.13.79,19.15,16.22,23.94,8.24,44.95-11.19,29.47,4.79,38,4.79,38s-7-18.13,6.38-29c18.36-14.89,9.84-23.67,11.17-37,.88-8.79,13.57-20.48-4.78-46-5.62-7.81-6.58-8.58-11.71-21.81-3.45-8.91-16.47-25.35-40.31-23.6-6.23.46-17.92-2.63-28.84-5.13-22.08-5-45.91,11.74-42.83,24.74C37.11,79,63.94,58.25,95.1,59.55Z"/><path class="cls-3" d="M39.8,147.27c-7.83.12-27.82-7-28-20.75S23.24,107.75,34.11,115,39.8,147.27,39.8,147.27Z"/><path class="cls-7" d="M125.05,103.81A49.43,49.43,0,0,0,118.66,98c-.46-.39-.94-.76-1.43-1.11l0,0h0A21.08,21.08,0,0,0,105,93a21.32,21.32,0,0,0-15.53,6.77c-1.93,1.88-3.58,3.94-5.3,6C82,108.3,80.74,107,78.57,107s-3.46,1.26-5.63-1.3c-1.71-2-3.37-4.09-5.29-6A21.48,21.48,0,0,0,52,93,20.81,20.81,0,0,0,39.8,96.87h0s.05,0,0,0c-.49.35-.93.72-1.39,1.11A49.36,49.36,0,0,0,32,103.81c-2.35,2.85-7.49,3-7.49,3v5.89s3.07-.19,4.07,1c.59.73,1.22,4.23,2.26,7.9a23,23,0,0,0,1.28,3.78,15.76,15.76,0,0,0,1.7,3.22h0A21.67,21.67,0,0,0,52.11,139a21.91,21.91,0,0,0,20-13.52s0,0,0,0a.41.41,0,0,1,0-.09c1.57-2.8,3.16-10.48,3.87-11.7a3.08,3.08,0,0,1,5.07,0c.71,1.22,2.3,8.9,3.87,11.7a.41.41,0,0,1,0,.09s0,0,0,0A21.91,21.91,0,0,0,105,139a21.65,21.65,0,0,0,18.31-10.35h0a15.48,15.48,0,0,0,1.69-3.22,24,24,0,0,0,1.26-3.78c1-3.67,1.62-7.17,2.2-7.9,1-1.23,4-1,4-1v-5.89S127.4,106.66,125.05,103.81ZM52.11,135.89c-10.46,0-19-8.9-19-19.88s8.49-19.88,19-19.88,19,8.9,19,19.88S62.58,135.89,52.11,135.89Zm52.91,0c-10.46,0-19-8.9-19-19.88s8.49-19.88,19-19.88S124,105,124,116,115.49,135.89,105,135.89Z"/><path class="cls-8" d="M113.27,54.57s34.43,11.91,42.55,3.2c17.48-18.77-4.28,17.87-6.3,22.61-6.14,14.4-17.09,12.51-25.59,16.2-5.61,2.44-20.61,2.63-41.11-3-6.27-1.72-7-2.14-16.71-2.4-6.56-.17-20-4.54-23.62-19.44-.94-3.89-5.32-10.34-9.15-16.45-7.75-12.35-.63-27.54,7.73-31.43,25.23-11.76,59.46,9.91,72.2,30.73"/><path class="cls-9" d="M113.27,54.57s34.43,11.91,42.55,3.2c17.48-18.77-4.28,17.87-6.3,22.61-6.14,14.4-17.09,12.51-25.59,16.2-5.61,2.44-20.61,2.63-41.11-3-6.27-1.72-7-2.14-16.71-2.4-6.56-.17-20-4.54-23.62-19.44-.94-3.89-5.32-10.34-9.15-16.45-7.75-12.35-.63-27.54,7.73-31.43,25.23-11.76,59.46,9.91,72.2,30.73"/><path class="cls-10" d="M113.27,54.57s34.43,11.91,42.55,3.2c17.48-18.77-4.28,17.87-6.3,22.61-6.14,14.4-17.09,12.51-25.59,16.2-5.61,2.44-20.61,2.63-41.11-3-6.27-1.72-7-2.14-16.71-2.4-6.56-.17-20-4.54-23.62-19.44-.94-3.89-5.32-10.34-9.15-16.45-7.75-12.35-.63-27.54,7.73-31.43,25.23-11.76,59.46,9.91,72.2,30.73"/></g></g></svg>